# xmcd CD database file
#
# Track frame offsets:
#	150
#	19760
#	36539
#	58707
#	79153
#	103978
#	119851
#	133311
#	158989
#	168387
#	188712
#	202925
#	244159
#
# Disc length: 3540 seconds
#
# Revision: 1
# Processed by: cddbd v1.5.1PL2 Copyright (c) Steve Scherf et al.
# Submitted via: CDex 1.70beta2
#
DISCID=c00dd20d
DTITLE=Bobby Manriquez - Prayin' the Blues
DYEAR=2004
DGENRE=Blues
TTITLE0=Find That Love
TTITLE1=Grace
TTITLE2=Blues Rockin’
TTITLE3=Henpecked
TTITLE4=My Heart to Give
TTITLE5=Slinky
TTITLE6=Black and Blue
TTITLE7=G-Blue
TTITLE8=FT3
TTITLE9=Unhooked
TTITLE10=FT3.5
TTITLE11=Rock Me
TTITLE12=Sweetest Love
EXTD=YEAR: 2004
EXTT0=
EXTT1=
EXTT2=
EXTT3=
EXTT4=
EXTT5=
EXTT6=
EXTT7=
EXTT8=
EXTT9=
EXTT10=
EXTT11=
EXTT12=
PLAYORDER=
